<svg width="20" height="20" viewBox="0 0 20 20" fill="none" xmlns="http://www.w3.org/2000/svg">
<path d="M13.72 2.14V8.98H13.54L10.84 9.4V13.6C10.84 15.28 11.8 17.44 13.24 18.46C13.3 18.52 13.36 18.52 13.36 18.58C13.18 18.82 12.88 18.94 12.52 18.94H2.14C1.54 18.94 1 18.4 1 17.8V2.2C1 1.54 1.48 1 2.14 1H12.58C13.18 1 13.72 1.54 13.72 2.14Z" stroke="#54BC64" stroke-width="2" stroke-miterlimit="10" stroke-linecap="round" stroke-linejoin="round"/>
<path d="M2.67993 3.45996H6.27993" stroke="#54BC64" stroke-width="2" stroke-miterlimit="10" stroke-linecap="round" stroke-linejoin="round"/>
<path d="M2.67993 6.04004H9.09993" stroke="#54BC64" stroke-width="2" stroke-miterlimit="10" stroke-linecap="round" stroke-linejoin="round"/>
<path d="M2.67993 8.62H9.09993" stroke="#54BC64" stroke-width="2" stroke-miterlimit="10" stroke-linecap="round" stroke-linejoin="round"/>
<path d="M9.15993 11.2H2.67993" stroke="#54BC64" stroke-width="2" stroke-miterlimit="10" stroke-linecap="round" stroke-linejoin="round"/>
<path d="M9.15993 13.78H2.67993" stroke="#54BC64" stroke-width="2" stroke-miterlimit="10" stroke-linecap="round" stroke-linejoin="round"/>
<path d="M2.56006 16.36H9.16006" stroke="#54BC64" stroke-width="2" stroke-miterlimit="10" stroke-linecap="round" stroke-linejoin="round"/>
<path d="M18.9998 9.40005V13.6C18.9998 15.88 17.1398 19 14.9198 19C14.3198 19 13.7798 18.76 13.2398 18.4C11.7998 17.38 10.8398 15.28 10.8398 13.54V9.40005L13.4798 8.98005L14.7998 8.80005L18.9998 9.40005Z" stroke="#54BC64" stroke-width="2" stroke-miterlimit="10" stroke-linecap="round" stroke-linejoin="round"/>
<path d="M13.1799 14.38L14.0199 15.22L16.6599 12.58" stroke="#54BC64" stroke-width="2" stroke-miterlimit="10" stroke-linecap="round" stroke-linejoin="round"/>
</svg>
